HIERARCHY
ROOT hip
{
  OFFSET 0 0 0
  CHANNELS 6 Xposition Yposition Zposition Zrotation Yrotation Xrotation
  JOINT abdomen
  {
    OFFSET 0 20.6881 -0.73152
    CHANNELS 3 Zrotation Xrotation Yrotation
    JOINT chest
    {
      OFFSET 0 11.7043 -0.48768
      CHANNELS 3 Zrotation Xrotation Yrotation
      JOINT neck
      {
        OFFSET 0 22.1894 -2.19456
        CHANNELS 3 Zrotation Xrotation Yrotation
        JOINT head
        {
          OFFSET -0.24384 7.07133 1.2192
          CHANNELS 3 Zrotation Xrotation Yrotation
          JOINT leftEye
          {
            OFFSET 4.14528 8.04674 8.04672
            CHANNELS 3 Zrotation Xrotation Yrotation
            End Site
            {
              OFFSET 1 0 0
            }
          }
          JOINT rightEye
          {
            OFFSET -3.6576 8.04674 8.04672
            CHANNELS 3 Zrotation Xrotation Yrotation
            End Site
            {
              OFFSET 1 0 0
            }
          }
        }
      }
      JOINT rCollar
      {
        OFFSET -2.68224 19.2634 -4.8768
        CHANNELS 3 Zrotation Xrotation Yrotation
        JOINT rShldr
        {
          OFFSET -8.77824 -1.95073 1.46304
          CHANNELS 3 Zrotation Xrotation Yrotation
          JOINT rForeArm
          {
            OFFSET -28.1742 -1.7115 0.48768
            CHANNELS 3 Zrotation Xrotation Yrotation
            JOINT rHand
            {
              OFFSET -22.5879 0.773209 7.07136
              CHANNELS 3 Zrotation Xrotation Yrotation
              JOINT rThumb1
              {
                OFFSET -1.2192 -0.487915 3.41376
                CHANNELS 3 Zrotation Xrotation Yrotation
                JOINT rThumb2
                {
                  OFFSET -3.37035 -0.52449 3.41376
                  CHANNELS 3 Zrotation Xrotation Yrotation
                  End Site
                  {
                    OFFSET -1.78271 -1.18214 1.43049
                  }
                }
              }
              JOINT rIndex1
              {
                OFFSET -7.75947 0.938293 5.60832
                CHANNELS 3 Zrotation Xrotation Yrotation
                JOINT rIndex2
                {
                  OFFSET -2.54057 -0.884171 1.56538
                  CHANNELS 3 Zrotation Xrotation Yrotation
                  End Site
                  {
                    OFFSET -1.62519 -0.234802 1.16502
                  }
                }
              }
              JOINT rMid1
              {
                OFFSET -8.24714 1.18213 3.41376
                CHANNELS 3 Zrotation Xrotation Yrotation
                JOINT rMid2
                {
                  OFFSET -3.10165 -0.590103 1.0647
                  CHANNELS 3 Zrotation Xrotation Yrotation
                  End Site
                  {
                    OFFSET -2.48547 -0.328903 0.83742
                  }
                }
              }
              JOINT rRing1
              {
                OFFSET -8.82822 0.546677 1.51678
                CHANNELS 3 Zrotation Xrotation Yrotation
                JOINT rRing2
                {
                  OFFSET -2.60934 -0.819778 -0.0198488
                  CHANNELS 3 Zrotation Xrotation Yrotation
                  End Site
                  {
                    OFFSET -2.33842 -0.294052 0.168128
                  }
                }
              }
              JOINT rPinky1
              {
                OFFSET -8.27202 -0.0477905 -0.4584
                CHANNELS 3 Zrotation Xrotation Yrotation
                JOINT rPinky2
                {
                  OFFSET -1.82734 -0.647385 -0.700984
                  CHANNELS 3 Zrotation Xrotation Yrotation
                  End Site
                  {
                    OFFSET -1.69225 -0.51767 -0.607171
                  }
                }
              }
            }
          }
        }
      }
      JOINT lCollar
      {
        OFFSET 2.68224 19.2634 -4.8768
        CHANNELS 3 Zrotation Xrotation Yrotation
        JOINT lShldr
        {
          OFFSET 8.77824 -1.95073 1.46304
          CHANNELS 3 Zrotation Xrotation Yrotation
          JOINT lForeArm
          {
            OFFSET 28.1742 -1.7115 0.48768
            CHANNELS 3 Zrotation Xrotation Yrotation
            JOINT lHand
            {
              OFFSET 22.5879 0.773209 7.07136
              CHANNELS 3 Zrotation Xrotation Yrotation
              JOINT lThumb1
              {
                OFFSET 1.2192 -0.487915 3.41376
                CHANNELS 3 Zrotation Xrotation Yrotation
                JOINT lThumb2
                {
                  OFFSET 3.37035 -0.52449 3.41376
                  CHANNELS 3 Zrotation Xrotation Yrotation
                  End Site
                  {
                    OFFSET 1.78271 -1.18214 1.43049
                  }
                }
              }
              JOINT lIndex1
              {
                OFFSET 7.75947 0.938293 5.60832
                CHANNELS 3 Zrotation Xrotation Yrotation
                JOINT lIndex2
                {
                  OFFSET 2.54057 -0.884171 1.56538
                  CHANNELS 3 Zrotation Xrotation Yrotation
                  End Site
                  {
                    OFFSET 1.62519 -0.234802 1.16502
                  }
                }
              }
              JOINT lMid1
              {
                OFFSET 8.24714 1.18213 3.41376
                CHANNELS 3 Zrotation Xrotation Yrotation
                JOINT lMid2
                {
                  OFFSET 3.10165 -0.590103 1.0647
                  CHANNELS 3 Zrotation Xrotation Yrotation
                  End Site
                  {
                    OFFSET 2.48547 -0.328903 0.83742
                  }
                }
              }
              JOINT lRing1
              {
                OFFSET 8.82822 0.546677 1.51678
                CHANNELS 3 Zrotation Xrotation Yrotation
                JOINT lRing2
                {
                  OFFSET 2.60934 -0.819778 -0.0198488
                  CHANNELS 3 Zrotation Xrotation Yrotation
                  End Site
                  {
                    OFFSET 2.33842 -0.294052 0.168128
                  }
                }
              }
              JOINT lPinky1
              {
                OFFSET 8.27202 -0.0477905 -0.4584
                CHANNELS 3 Zrotation Xrotation Yrotation
                JOINT lPinky2
                {
                  OFFSET 1.82734 -0.647385 -0.700984
                  CHANNELS 3 Zrotation Xrotation Yrotation
                  End Site
                  {
                    OFFSET 1.69225 -0.51767 -0.607171
                  }
                }
              }
            }
          }
        }
      }
    }
  }
  JOINT rButtock
  {
    OFFSET -8.77824 4.35084 1.2192
    CHANNELS 3 Zrotation Xrotation Yrotation
    JOINT rThigh
    {
      OFFSET 0 -1.70687 -2.19456
      CHANNELS 3 Zrotation Xrotation Yrotation
      JOINT rShin
      {
        OFFSET 0 -36.8199 0.73152
        CHANNELS 3 Zrotation Xrotation Yrotation
        JOINT rFoot
        {
          OFFSET 0.73152 -45.1104 -5.12064
          CHANNELS 3 Zrotation Xrotation Yrotation
          End Site
          {
            OFFSET -1.1221 -3.69964 12.103
          }
        }
      }
    }
  }
  JOINT lButtock
  {
    OFFSET 8.77824 4.35084 1.2192
    CHANNELS 3 Zrotation Xrotation Yrotation
    JOINT lThigh
    {
      OFFSET 0 -1.70687 -2.19456
      CHANNELS 3 Zrotation Xrotation Yrotation
      JOINT lShin
      {
        OFFSET 0 -36.8199 0.73152
        CHANNELS 3 Zrotation Xrotation Yrotation
        JOINT lFoot
        {
          OFFSET -0.73152 -45.1104 -5.12064
          CHANNELS 3 Zrotation Xrotation Yrotation
          End Site
          {
            OFFSET 1.1221 -3.69964 12.103
          }
        }
      }
    }
  }
}
MOTION
Frames:	4
Frame Time:	0.03333
-30.1162 60.821999999999996 -70.6032 169.81084 -46.016872 -172.608006 -11.845256 13.851956 -87.652867 8.918164 1.789004 82.841483 -14.446451 26.46088 -84.183926 37.422536 8.147922 53.079009 0.001086 -0.0 -0.003653 0.001086 -0.0 -0.003653 0.070456 -0.427908 -0.094285 -9.869841 -87.490507 -74.32687 -156.947912 81.661074 -151.046755 -7.718092 32.253798 2.14212 88.927731 -50.83142 37.60052 -15.665726 -43.125586 -30.21394 -100.051779 38.036684 84.485661 -66.795582 53.415287 46.227927 -0.058172 0.167835 0.031586 9.842935 -20.362155 -1.550014 -71.925113 72.973363 89.772241 -156.518395 -44.85539 -176.435461 -85.999326 -50.495322 -84.371013 -147.146246 13.913284 -143.171152 -4.208513 -43.443106 8.384387 -72.887225 10.954539 30.739083 -94.049362 -40.167134 -57.524621 171.931532 41.74642 -144.711878 90.496845 38.313205 -51.260295 157.872691 -32.920029 -80.035087 -0.186015 -0.299954 0.10469 9.469588 25.548907 -8.233246 -23.904221 -61.333755 -1.399856 5.169736 21.27257 -4.521867 -0.003378 1.770209 -0.557795 49.864466 77.897297 -62.980889 162.607189 72.590066 150.845904 148.990289 13.4294 142.660835 0.00461 0.001517 0.002305 -59.14407 -52.769594 46.958746 74.752556 -15.785992 6.870255 -149.057168 17.438513 89.093051 -0.003308 -0.000824 -0.001654 9.369521 8.429481 131.61864 48.790524 -24.760456 76.388498 -77.954458 -4.725382 -159.25663
-30.1441 61.0796 -70.5423 170.041243 -45.872613 -172.736597 -12.316812 15.503491 -44.030337 9.375265 -5.454394 39.949104 -13.002301 30.351076 -109.25339 35.928521 22.212046 74.027484 -0.000255 0.0 -0.00083 0.00048 0.0 0.004733 -14.147834 43.061532 15.996832 -102.542783 15.971433 138.932375 -101.944727 -25.781932 -115.959758 18.341957 -37.965397 10.496292 -176.927005 -14.532766 89.658435 165.465442 -31.31711 101.872273 -50.386208 40.826661 40.024483 -176.344497 -28.438479 110.783925 -160.672505 -6.668114 143.244606 -166.987844 -15.994658 143.776166 -145.10181 -1.521001 -178.649931 12.143207 33.168332 -5.241707 -145.176239 12.068222 -141.82063 -15.444706 -30.922259 -17.421919 14.147092 43.061834 -15.995712 95.082218 0.51699 -126.241055 -2.304838 -5.81612 65.239086 -160.324794 -33.591143 -140.089545 -2.016453 -2.000328 0.275996 -4.259067 -6.524414 4.891735 -0.184478 -0.300214 0.105759 21.402674 34.969442 -15.9328 22.003679 41.041181 -17.007631 148.586418 30.586213 -134.919759 145.11908 0.185287 179.186891 -11.90461 29.423602 5.659873 139.223247 -4.396897 136.391085 127.03456 -28.791117 124.842833 0.000592 0.000416 -0.0 -55.640159 -54.198598 -130.785977 -68.102783 10.921456 122.556459 -22.507888 10.828201 -11.595677 0.000223 0.000416 -0.000287 11.035682 10.013824 -48.279807 -41.308841 15.729182 -12.891646 -3.216519 82.694549 105.664508
-30.162699999999997 61.2081 -70.5089 169.950285 -45.768223 -172.477128 -14.293582 15.913355 3.412432 4.297714 -11.270827 -7.157286 -14.042806 27.814078 -93.618277 36.982231 13.373181 61.073227 -0.00208 0.0 -0.001062 -0.002185 -0.0 0.000108 -157.70705 -21.189466 165.296744 148.675865 -26.791891 -175.073724 -26.76458 -28.472203 29.457109 0.986306 5.392407 1.4122 -169.149573 -6.830214 89.916117 -125.838996 11.51585 60.340481 -162.918104 -37.929762 122.628942 2.5554 19.96601 -5.054599 -0.286167 0.832729 0.161301 2.401114 2.44927 0.314809 -0.113432 -5.208216 -1.643081 6.580529 33.738668 5.56422 -152.501369 38.522949 -147.799921 -147.033222 8.80052 -141.106937 86.368777 68.136041 -89.528928 119.426813 11.424469 -91.457485 -10.374697 -35.252536 61.416122 -163.914254 -26.082517 -142.566111 1.583297 1.556393 -0.264045 85.410721 21.552919 -78.527939 -15.038601 -27.004399 5.678921 -13.210642 2.015684 1.275658 0.969522 2.779588 -0.553079 -7.036256 -11.629473 1.180387 -0.005195 1.770632 -0.554989 -9.143591 12.17397 -1.583466 -1.297831 3.4918 -1.191974 4.462062 -16.292325 6.095397 -0.000973 -0.000731 -0.0 -57.299724 -52.370111 -0.0 64.502024 42.126826 -135.286492 127.780566 38.885901 -47.223688 0.00054 -5e-06 -0.000694 10.926379 9.810187 -48.568163 -42.08129 15.225045 -18.204814 68.698118 -38.666873 138.797757
-30.159799999999997 61.203700000000005 -70.51650000000001 170.024475 -45.881175 -172.420253 -14.18799 15.719412 3.338695 4.335786 -11.190952 -7.222082 6.992827 28.285285 119.673588 -29.717761 26.287411 -144.187666 -0.004722 0.0 -0.00311 -0.004722 0.0 -0.00311 3.269123 -26.75584 -5.241227 53.962351 5.10924 -19.172306 104.506148 -25.562771 59.541302 -174.42105 36.424891 145.932072 -115.533488 32.701473 68.304762 -22.182526 -16.906828 29.127661 2.326289 -3.867662 -1.259618 -65.475294 48.476129 50.843731 -0.218975 0.638621 0.122143 -163.990731 -6.976261 143.569799 -145.11947 0.310215 -179.225494 11.189218 13.761308 -7.376425 -43.36515 -47.546786 -42.160832 -145.919331 9.908576 -142.714954 159.221348 -48.724935 -170.56774 8.115801 31.598591 50.279339 175.0344 68.965749 150.153698 7.995517 33.049331 -2.242366 178.927877 -16.453572 -89.421458 46.71416 -14.683489 -4.754742 50.38702 40.82615 -40.024565 2.928875 13.848751 -0.345036 36.0369 51.722736 -29.832845 42.042452 58.504892 -36.268517 75.94622 -72.111542 93.113206 149.869789 -26.381876 179.927904 -3.655423 10.395197 -3.322617 159.736488 55.525363 150.043186 179.982212 75.749039 0.012171 149.598712 7.678162 0.0 -31.586763 70.458886 -52.795883 14.466126 60.295618 75.128097 179.992126 75.749359 0.008124 -115.127569 77.680409 -163.201386 -37.572855 -14.052293 89.842376 111.96747 30.679349 -13.688709
